<?xml version="1.0" standalone="no"?>
<!DOCTYPE svg PUBLIC "-//W3C//DTD SVG 20010904//EN"
 "http://www.w3.org/TR/2001/REC-SVG-20010904/DTD/svg10.dtd">
<svg version="1.0" xmlns="http://www.w3.org/2000/svg"
 width="900.000000pt" height="900.000000pt" viewBox="0 0 900.000000 900.000000"
 preserveAspectRatio="xMidYMid meet">
<metadata>
Created by potrace 1.10, written by Peter Selinger 2001-2011
</metadata>
<g transform="translate(0.000000,900.000000) scale(0.100000,-0.100000)"
fill="#000000" stroke="none">
<path d="M3654 7951 c-2 -2 -37 -6 -76 -7 -161 -7 -320 -36 -454 -80 -56 -19
-109 -34 -118 -34 -68 0 -603 -257 -676 -324 -31 -29 -144 -106 -156 -106 -14
0 -124 -85 -140 -109 -9 -12 -30 -29 -47 -38 -18 -9 -39 -25 -47 -37 -8 -12
-60 -70 -115 -131 -244 -266 -349 -410 -380 -521 -9 -33 -27 -93 -40 -134 -12
-41 -26 -106 -30 -145 -4 -38 -11 -80 -17 -95 -17 -43 -27 -140 -38 -347 -5
-109 -17 -248 -25 -309 -8 -62 -20 -208 -26 -325 -6 -117 -13 -217 -15 -221
-3 -4 -9 -114 -14 -245 -18 -428 -29 -606 -44 -708 -9 -55 -16 -135 -16 -179
0 -43 -7 -133 -15 -200 -37 -314 -50 -923 -31 -1570 8 -256 10 -280 28 -298
23 -23 57 -18 127 16 38 18 52 35 95 112 94 167 157 243 435 530 222 228 331
313 526 408 109 54 165 73 366 125 219 56 298 65 524 57 200 -6 326 -21 487
-56 140 -30 216 -59 364 -135 l131 -68 54 17 c74 24 104 48 124 98 31 78 65
79 101 4 20 -43 35 -59 72 -79 86 -46 96 -45 227 24 151 79 240 111 395 143
196 40 299 50 535 50 245 1 265 -2 546 -80 216 -59 397 -149 564 -278 51 -40
287 -277 422 -425 146 -159 186 -213 267 -363 32 -58 64 -83 133 -105 85 -27
88 -20 97 214 10 256 7 1229 -4 1361 -22 258 -32 358 -41 405 -5 27 -9 96 -9
152 0 56 -4 137 -10 181 -11 90 -28 360 -40 639 -14 329 -42 711 -70 950 -5
39 -9 111 -9 161 -1 50 -8 137 -17 195 -8 57 -13 120 -10 139 4 23 -2 62 -19
115 -13 44 -41 136 -60 204 -28 95 -46 138 -78 183 -23 33 -53 76 -67 97 -67
98 -151 199 -270 325 -41 43 -82 89 -91 103 -9 14 -30 33 -46 43 -17 10 -51
39 -78 64 -26 25 -77 63 -113 83 -37 20 -94 57 -127 82 -89 69 -179 120 -385
219 -176 85 -223 104 -385 150 -38 11 -90 27 -115 35 -179 59 -596 86 -785 51
-44 -8 -107 -19 -140 -24 -82 -11 -255 -57 -281 -75 -29 -19 -81 -16 -125 6
-58 29 -254 70 -469 99 -72 10 -249 17 -256 11z m296 -156 c159 -5 232 -16
405 -57 44 -10 85 -19 90 -18 59 4 159 22 244 44 140 36 216 45 416 45 259 2
439 -26 716 -109 241 -73 334 -113 464 -199 39 -26 130 -83 203 -127 74 -43
163 -104 199 -134 37 -30 84 -69 107 -86 60 -46 196 -184 263 -267 58 -71 80
-102 177 -241 27 -39 61 -85 76 -102 29 -34 34 -74 60 -509 6 -88 12 -187 15
-220 3 -33 10 -121 15 -195 5 -74 16 -225 24 -335 8 -110 19 -276 26 -370 14
-214 48 -681 56 -760 3 -33 7 -91 9 -130 2 -38 9 -128 14 -200 6 -71 15 -209
21 -305 5 -96 12 -202 16 -235 3 -33 8 -87 10 -120 1 -33 8 -130 15 -215 7
-85 13 -184 14 -220 2 -36 8 -128 14 -205 6 -77 13 -187 16 -245 7 -121 23
-279 30 -290 11 -18 -8 -70 -25 -70 -24 0 -42 24 -89 118 -71 143 -139 248
-284 431 -47 61 -246 265 -288 296 -14 11 -63 48 -108 82 -45 34 -121 80 -169
103 -48 23 -114 55 -147 71 -143 69 -283 108 -493 138 -108 16 -458 14 -592
-4 -209 -27 -484 -98 -609 -156 -102 -48 -141 -55 -214 -39 -65 13 -105 51
-144 137 -37 80 -58 72 -137 -49 -43 -66 -64 -82 -131 -96 -61 -13 -120 -2
-185 35 -86 48 -179 79 -380 124 -304 70 -752 80 -990 23 -36 -9 -90 -22 -120
-29 -68 -17 -180 -58 -240 -90 -25 -14 -86 -44 -137 -69 -78 -38 -131 -74
-282 -192 -42 -33 -155 -145 -206 -204 -26 -30 -60 -71 -77 -90 -86 -100 -199
-269 -256 -380 -69 -136 -86 -160 -114 -160 -22 0 -23 16 -4 210 8 80 17 206
21 280 3 74 10 173 14 220 4 47 8 101 8 120 0 19 5 96 11 170 6 74 14 177 16
228 3 51 8 114 11 140 3 26 10 126 15 222 5 96 14 220 20 275 5 55 19 231 30
390 12 160 23 310 25 335 2 25 9 133 15 240 10 193 20 328 40 550 6 63 15 183
21 265 12 189 35 526 52 760 l13 180 34 46 c19 26 69 96 110 155 103 151 172
234 282 339 183 176 259 234 488 370 63 38 129 79 145 91 69 52 284 144 450
193 269 80 465 113 625 105 52 -2 169 -6 260 -9z"/>
</g>
</svg>
